<svg width="32" height="32" viewBox="0 0 32 32" fill="none" xmlns="http://www.w3.org/2000/svg">
<path d="M4.14331 11.5754L20.1728 8.48128L21.5953 5.2998C19.3333 5.27336 17.4326 5.25729 15.6246 5.25951C14.2276 5.27434 12.8934 5.30254 10.8248 5.31457C9.31557 5.34799 7.70945 5.39817 5.86205 5.46937C5.78233 5.47924 5.70385 5.48963 5.6266 5.50055L4.14331 11.5754Z" fill="#2E2E2E"/>
<path d="M22.5436 5.32025C22.2129 5.31273 21.8973 5.30593 21.5953 5.2998L20.1728 8.48128L26.969 12.7487L30.9835 8.95544C30.2752 6.07492 27.9713 5.44361 22.5436 5.32025Z" fill="#0F0F0F"/>
<path d="M31.2364 11.9584C31.2557 10.7537 31.1827 9.76559 30.9835 8.95544L26.969 12.7487L21.4372 18.1224L31.217 14.1711C31.2176 13.5284 31.223 12.7996 31.2364 11.9584Z" fill="#4F4E4E"/>
<path d="M28.8656 20.1994C30.3894 20.9287 30.9829 21.2398 31.0851 21.3725C31.3524 18.6351 31.2136 17.6925 31.217 14.1711L21.4372 18.1224L28.8656 20.1994Z" fill="#101010"/>
<path d="M9.10918 26.4992C15.6523 26.5439 17.644 26.6572 23.4919 26.4992C29.3398 26.3411 30.752 24.7375 31.0784 21.4415L31.0851 21.3725C30.9829 21.2398 30.3894 20.9287 28.8656 20.1994L20.4889 23.9703L6.23659 22.5479C6.20651 22.5598 6.17653 22.5718 6.14665 22.5837C4.4517 23.2607 3.07431 23.9214 2.261 24.6025C3.40001 25.9799 5.43921 26.4741 9.10918 26.4992Z" fill="#202020"/>
<path d="M16.8537 18.5966C15.7695 19.0483 14.6509 19.4771 13.5346 19.8884L20.4889 23.9703L16.8537 18.5966Z" fill="#191919"/>
<path d="M12.6827 20.1994C12.6273 20.2195 12.5721 20.2395 12.5168 20.2594C11.8578 20.4973 11.2036 20.7296 10.5619 20.9574C10.4486 20.9977 10.3356 21.0378 10.2231 21.0778C8.79627 21.5847 7.43868 22.0705 6.23659 22.5479L20.4889 23.9703L13.5346 19.8884C13.2503 19.9932 12.9661 20.0969 12.6827 20.1994Z" fill="black"/>
<path d="M0.815884 18.0789C0.83545 18.5388 0.860036 19.0272 0.890489 19.5449C1.02929 21.9046 1.36928 23.5242 2.261 24.6025C3.07431 23.9214 4.4517 23.2607 6.14665 22.5837C6.17653 22.5718 6.20651 22.5598 6.23659 22.5479C7.43868 22.0705 8.79627 21.5847 10.2231 21.0778C10.3356 21.0378 10.4486 20.9977 10.5619 20.9574C11.2036 20.7296 11.8578 20.4973 12.5168 20.2594C12.5721 20.2395 12.6273 20.2195 12.6827 20.1994L0.815884 18.0789Z" fill="#0D0D0D"/>
<path d="M0.890489 11.9584C0.890489 11.9584 0.632362 13.7653 0.815884 18.0789L12.6827 20.1994C12.9661 20.0969 13.2503 19.9932 13.5346 19.8884L4.99983 12.4326L4.14331 11.5754L1.29729 8.72729C1.04774 9.59585 0.934666 10.6616 0.890489 11.9584Z" fill="#181818"/>
<path d="M20.1728 8.48128L4.14331 11.5754L11.9541 14.4872L15.1151 15.5936L15.5893 15.9097L16.3795 15.2775L20.1728 8.48128Z" fill="#070707"/>
<path d="M1.29729 8.72729L4.14331 11.5754L5.6266 5.50055C3.04993 5.86482 1.84495 6.82118 1.29729 8.72729Z" fill="#161616"/>
<path fill-rule="evenodd" clip-rule="evenodd" d="M15.5893 15.9097L16.8537 18.5966L20.4889 23.9703L28.8656 20.1994L21.4372 18.1224L26.969 12.7487L20.1728 8.48128L16.3795 15.2775L15.5893 15.9097Z" fill="#2B2B2B"/>
<path d="M4.14331 11.5754L4.99983 12.4326L13.5346 19.8884L16.8537 18.5966L15.5893 15.9097L15.1151 15.5936L11.9541 14.4872L4.14331 11.5754Z" fill="#131313"/>
<path d="M0.890489 11.9584C0.890489 11.9584 0.574388 14.1711 0.890489 19.5449M0.890489 11.9584C1.03161 7.81568 1.87581 6.03081 5.6266 5.50055M0.890489 11.9584C0.890489 11.9584 0.632362 13.7653 0.815884 18.0789M0.890489 11.9584C0.934666 10.6616 1.04774 9.59585 1.29729 8.72729M0.890489 19.5449C1.02929 21.9046 1.36928 23.5242 2.261 24.6025M0.890489 19.5449C0.860036 19.0272 0.83545 18.5388 0.815884 18.0789M31.0784 21.4415C30.752 24.7375 29.3398 26.3411 23.4919 26.4992C17.644 26.6572 15.6523 26.5439 9.10918 26.4992C5.43921 26.4741 3.40001 25.9799 2.261 24.6025M31.0784 21.4415C31.0806 21.4184 31.0829 21.3954 31.0851 21.3725M31.0784 21.4415C31.1058 21.4269 31.1102 21.4051 31.0851 21.3725M31.0784 21.4415L31.0851 21.3725M2.261 24.6025C3.07431 23.9214 4.4517 23.2607 6.14665 22.5837M16.8537 18.5966L13.5346 19.8884M16.8537 18.5966L20.4889 23.9703M16.8537 18.5966C15.7695 19.0483 14.6509 19.4771 13.5346 19.8884M16.8537 18.5966C15.4394 19.1859 13.9665 19.7361 12.5168 20.2594M16.8537 18.5966L15.5893 15.9097M6.23659 22.5479L20.4889 23.9703M6.23659 22.5479C6.20651 22.5598 6.17653 22.5718 6.14665 22.5837M6.23659 22.5479C7.43868 22.0705 8.79627 21.5847 10.2231 21.0778M20.4889 23.9703L13.5346 19.8884M20.4889 23.9703L28.8656 20.1994M0.815884 18.0789L12.6827 20.1994M12.6827 20.1994C12.9661 20.0969 13.2503 19.9932 13.5346 19.8884M12.6827 20.1994C12.6273 20.2195 12.5721 20.2395 12.5168 20.2594M1.29729 8.72729L4.99983 12.4326M1.29729 8.72729C1.84495 6.82118 3.04993 5.86482 5.6266 5.50055M1.29729 8.72729L4.14331 11.5754M4.99983 12.4326L13.5346 19.8884M4.99983 12.4326L4.14331 11.5754M4.14331 11.5754L20.1728 8.48128M4.14331 11.5754L11.9541 14.4872L15.1151 15.5936L15.5893 15.9097M4.14331 11.5754L5.6266 5.50055M20.1728 8.48128L21.5953 5.2998M20.1728 8.48128L26.969 12.7487M20.1728 8.48128L16.3795 15.2775L15.5893 15.9097M28.8656 20.1994L21.4372 18.1224M28.8656 20.1994C30.3894 20.9287 30.9829 21.2398 31.0851 21.3725M21.5953 5.2998C21.8973 5.30593 22.2129 5.31273 22.5436 5.32025C27.9713 5.44361 30.2752 6.07492 30.9835 8.95544M21.5953 5.2998C19.3333 5.27336 17.4326 5.25729 15.6246 5.25951M21.5953 5.2998C18.8019 5.24304 17.1746 5.24305 15.6246 5.25951M26.969 12.7487L30.9835 8.95544M26.969 12.7487L21.4372 18.1224M30.9835 8.95544C31.1827 9.76559 31.2557 10.7537 31.2364 11.9584C31.223 12.7996 31.2176 13.5284 31.217 14.1711M21.4372 18.1224L31.217 14.1711M31.217 14.1711C31.2136 17.6925 31.3524 18.6351 31.0851 21.3725M5.6266 5.50055L5.63203 5.4783C5.70913 5.47529 5.7858 5.47231 5.86205 5.46937M5.6266 5.50055C5.70385 5.48963 5.78233 5.47924 5.86205 5.46937M15.6246 5.25951C14.2276 5.27434 12.8934 5.30254 10.8248 5.31457M15.6246 5.25951C14.0144 5.26149 12.4777 5.27798 10.8248 5.31457M10.8248 5.31457C9.31557 5.34799 7.70945 5.39817 5.86205 5.46937M10.8248 5.31457C10.2176 5.31811 9.54705 5.32025 8.79307 5.32025C7.66476 5.32025 6.69507 5.36629 5.86205 5.46937M6.14665 22.5837C7.37078 22.0948 8.76056 21.5974 10.2231 21.0778M10.2231 21.0778C10.3356 21.0378 10.4486 20.9977 10.5619 20.9574C11.2036 20.7296 11.8578 20.4973 12.5168 20.2594" stroke="#222222" stroke-width="0.158052" stroke-linecap="round" stroke-linejoin="round"/>
<g filter="url(#filter0_d_180_116)">
<rect x="14.6315" y="11.0101" width="2.4498" height="9.7992" rx="0.316103" fill="#7A0818"/>
</g>
<g filter="url(#filter1_d_180_116)">
<rect x="11.0058" y="17.0856" width="2.4498" height="9.7992" rx="0.316103" transform="rotate(-90 11.0058 17.0856)" fill="#7A0818"/>
</g>
<defs>
<filter id="filter0_d_180_116" x="10.8383" y="7.21686" width="10.0363" height="17.3857" filterUnits="userSpaceOnUse" color-interpolation-filters="sRGB">
<feFlood flood-opacity="0" result="BackgroundImageFix"/>
<feColorMatrix in="SourceAlpha" type="matrix" values="0 0 0 0 0 0 0 0 0 0 0 0 0 0 0 0 0 0 127 0" result="hardAlpha"/>
<feOffset/>
<feGaussianBlur stdDeviation="1.89662"/>
<feComposite in2="hardAlpha" operator="out"/>
<feColorMatrix type="matrix" values="0 0 0 0 0.478431 0 0 0 0 0.0313726 0 0 0 0 0.0941176 0 0 0 1 0"/>
<feBlend mode="normal" in2="BackgroundImageFix" result="effect1_dropShadow_180_116"/>
<feBlend mode="normal" in="SourceGraphic" in2="effect1_dropShadow_180_116" result="shape"/>
</filter>
<filter id="filter1_d_180_116" x="7.21257" y="10.8426" width="17.3857" height="10.0363" filterUnits="userSpaceOnUse" color-interpolation-filters="sRGB">
<feFlood flood-opacity="0" result="BackgroundImageFix"/>
<feColorMatrix in="SourceAlpha" type="matrix" values="0 0 0 0 0 0 0 0 0 0 0 0 0 0 0 0 0 0 127 0" result="hardAlpha"/>
<feOffset/>
<feGaussianBlur stdDeviation="1.89662"/>
<feComposite in2="hardAlpha" operator="out"/>
<feColorMatrix type="matrix" values="0 0 0 0 0.478431 0 0 0 0 0.0313726 0 0 0 0 0.0941176 0 0 0 1 0"/>
<feBlend mode="normal" in2="BackgroundImageFix" result="effect1_dropShadow_180_116"/>
<feBlend mode="normal" in="SourceGraphic" in2="effect1_dropShadow_180_116" result="shape"/>
</filter>
</defs>
</svg>
